# xmcd CD database file
#
# Track frame offsets:
#	182
#	32185
#	48670
#	80150
#	102812
#	116415
#	158727
#	190175
#	214672
#	245325
#	260825
#	295297
#
# Disc length: 4359 seconds
#
# Revision: 0
# Processed by: cddbd v1.5.1PL0 Copyright (c) Steve Scherf et al.
# Submitted via: CDex 1.51
#
DISCID=ad11050c
DTITLE=Tal Farlow - Philippe Petit - Standards Recital
DYEAR=1993
DGENRE=Jazz
TTITLE0=Autumn leaves
TTITLE1=How deep is the ocean
TTITLE2=Love for sale
TTITLE3=Billies's bounce
TTITLE4=Do nothing till you hear from me
TTITLE5=Body and soul
TTITLE6=Satin Doll
TTITLE7=Christine cookin'
TTITLE8=Tenderly
TTITLE9=Lester leaps in
TTITLE10=Nuages
TTITLE11=Tal's medley
EXTD=YEAR: 1993
EXTT0=
EXTT1=
EXTT2=
EXTT3=
EXTT4=
EXTT5=
EXTT6=
EXTT7=
EXTT8=
EXTT9=
EXTT10=
EXTT11=
PLAYORDER=
